<svg width="40" height="40" viewBox="0 0 40 40" fill="none" xmlns="http://www.w3.org/2000/svg">
<circle cx="20" cy="20" r="20" fill="#DEF6F7"/>
<path d="M30.2363 27C31.1104 27 31.8058 26.4499 32.4301 25.6807C33.7081 24.106 31.6098 22.8476 30.8095 22.2314C29.9959 21.6049 29.0875 21.25 28.1665 21.1667M26.9999 18.8333C28.6107 18.8333 29.9165 17.5275 29.9165 15.9167C29.9165 14.3058 28.6107 13 26.9999 13" stroke="#01A8AB" stroke-width="1.5" stroke-linecap="round"/>
<path d="M9.76345 27C8.88927 27 8.19395 26.4499 7.56964 25.6807C6.29161 24.106 8.38995 22.8476 9.19026 22.2314C10.0038 21.6049 10.9122 21.25 11.8332 21.1667M12.4165 18.8333C10.8057 18.8333 9.49984 17.5275 9.49984 15.9167C9.49984 14.3058 10.8057 13 12.4165 13" stroke="#01A8AB" stroke-width="1.5" stroke-linecap="round"/>
<path d="M15.4309 23.6299C14.2389 24.367 11.1133 25.8721 13.017 27.7555C13.9469 28.6755 14.9826 29.3335 16.2847 29.3335H23.7149C25.0171 29.3335 26.0528 28.6755 26.9827 27.7555C28.8864 25.8721 25.7608 24.367 24.5687 23.6299C21.7733 21.9014 18.2263 21.9014 15.4309 23.6299Z" stroke="#01A8AB" stroke-width="1.5" stroke-linecap="round" stroke-linejoin="round"/>
<path d="M24.0832 14.7498C24.0832 17.005 22.255 18.8332 19.9998 18.8332C17.7447 18.8332 15.9165 17.005 15.9165 14.7498C15.9165 12.4947 17.7447 10.6665 19.9998 10.6665C22.255 10.6665 24.0832 12.4947 24.0832 14.7498Z" stroke="#01A8AB" stroke-width="1.5"/>
</svg>
