<svg width="40" height="40" viewBox="0 0 40 40" fill="none" xmlns="http://www.w3.org/2000/svg">
<circle cx="20" cy="20" r="20" fill="#DEF6F7"/>
<ellipse cx="16.571" cy="12.5713" rx="6" ry="2" stroke="#01A8AB" stroke-width="1.2"/>
<path d="M23.6418 17.1426C20.052 17.1426 17.1418 20.0527 17.1418 23.6426C17.1418 27.2324 20.052 30.1426 23.6418 30.1426C27.2317 30.1426 30.1418 27.2324 30.1418 23.6426C30.1418 20.0527 27.2317 17.1426 23.6418 17.1426Z" stroke="#01A8AB" stroke-width="1.2" stroke-linecap="round" stroke-linejoin="round"/>
<path d="M21.971 14.689C21.971 15.0204 22.2397 15.289 22.571 15.289C22.9024 15.289 23.171 15.0204 23.171 14.689H21.971ZM14.64 23.0691C14.9694 23.105 15.2655 22.8671 15.3014 22.5377C15.3373 22.2083 15.0994 21.9121 14.77 21.8762L14.64 23.0691ZM16.3173 19.1696C16.6486 19.174 16.9208 18.909 16.9253 18.5777C16.9297 18.2464 16.6647 17.9741 16.3334 17.9697L16.3173 19.1696ZM10.571 20.5713H11.171V12.5713H10.571H9.97104V20.5713H10.571ZM22.571 14.689H23.171V12.5713H22.571H21.971V14.689H22.571ZM14.705 22.4727L14.77 21.8762C13.6076 21.7495 12.6416 21.5068 11.9852 21.21C11.6557 21.0609 11.4339 20.9115 11.3031 20.781C11.1742 20.6526 11.171 20.5831 11.171 20.5713H10.571H9.97104C9.97104 21.0032 10.1846 21.3605 10.4559 21.6309C10.7251 21.8993 11.0868 22.1207 11.4907 22.3034C12.3013 22.67 13.4023 22.9343 14.64 23.0691L14.705 22.4727ZM16.3253 18.5696L16.3334 17.9697C14.7786 17.9488 13.4069 17.7245 12.4446 17.3913C11.9604 17.2237 11.6127 17.0397 11.3978 16.8657C11.1778 16.6874 11.171 16.5844 11.171 16.5713H10.571H9.97104C9.97104 17.0967 10.2836 17.5074 10.6425 17.7981C11.0067 18.0931 11.4975 18.3333 12.052 18.5253C13.1668 18.9112 14.6722 19.1475 16.3173 19.1696L16.3253 18.5696Z" fill="#01A8AB"/>
<path d="M23.6416 27.1426C23.7463 27.1426 23.8436 27.0931 24.0383 26.9942L25.603 26.199C26.2954 25.8471 26.6416 25.6712 26.6416 25.3926V21.8926M23.6416 27.1426C23.5369 27.1426 23.4396 27.0931 23.2449 26.9942L21.6802 26.199C20.9878 25.8471 20.6416 25.6712 20.6416 25.3926V21.8926M23.6416 27.1426V23.6426M26.6416 21.8926C26.6416 21.614 26.2954 21.438 25.603 21.0862L24.0383 20.291C23.8436 20.192 23.7463 20.1426 23.6416 20.1426C23.5369 20.1426 23.4396 20.192 23.2449 20.291L21.6802 21.0862C20.9878 21.438 20.6416 21.614 20.6416 21.8926M26.6416 21.8926C26.6416 22.1712 26.2954 22.3471 25.603 22.699L24.0383 23.4942C23.8436 23.5931 23.7463 23.6426 23.6416 23.6426M20.6416 21.8926C20.6416 22.1712 20.9878 22.3471 21.6802 22.699L23.2449 23.4942C23.4396 23.5931 23.5369 23.6426 23.6416 23.6426" stroke="#01A8AB" stroke-width="1.2" stroke-linejoin="round"/>
</svg>
