<svg width="404" height="290" viewBox="0 0 404 290" fill="none" xmlns="http://www.w3.org/2000/svg">
<g opacity="0.05" clip-path="url(#clip0_681_6321)">
<path d="M0 172.259V-70.7665L111.345 -132.89L226.201 -66.2539V24.4443H183.058V-42.1917L113.092 -84.7822L36.6149 -42.1917V194.295L0 172.259Z" fill="white"/>
<path d="M87.2759 -15.6428V223.364L196.609 290L240.247 266.959L127.386 200.817V9.918L87.2759 -15.6428Z" fill="white"/>
<path d="M404 -67.2588V175.767L292.656 237.89L177.799 171.254V80.5559H220.926V147.208L290.892 189.799L367.386 147.208V-89.2952L404 -67.2588Z" fill="white"/>
<path d="M316.725 120.643V-118.364L207.391 -185L163.753 -161.959L276.598 -95.8171V95.0986L316.725 120.643Z" fill="white"/>
</g>
<defs>
<clipPath id="clip0_681_6321">
<rect width="404" height="475" fill="white" transform="translate(0 -185)"/>
</clipPath>
</defs>
</svg>
