<svg width="40" height="40" viewBox="0 0 40 40" fill="none" xmlns="http://www.w3.org/2000/svg">
<g clip-path="url(#clip0_445_5016)">
<path d="M20 40C23.9556 40 27.8224 38.827 31.1114 36.6294C34.4004 34.4318 36.9638 31.3082 38.4776 27.6537C39.9913 23.9992 40.3874 19.9778 39.6157 16.0982C38.844 12.2186 36.9392 8.65492 34.1421 5.85787C31.3451 3.06082 27.7814 1.15601 23.9018 0.384303C20.0222 -0.387401 16.0009 0.00866561 12.3463 1.52242C8.69181 3.03617 5.56824 5.59962 3.37061 8.88861C1.17298 12.1776 -4.8436e-07 16.0444 -4.8436e-07 20C-0.00647552 22.6283 0.50642 25.2319 1.50922 27.6613C2.51202 30.0908 3.98496 32.2981 5.84343 34.1566C7.70189 36.015 9.90924 37.488 12.3387 38.4908C14.7681 39.4936 17.3717 40.0065 20 40Z" fill="#2775CA"/>
<path d="M25.5 23.1672C25.5 20.2581 23.7509 19.249 20.2509 18.8326C17.7491 18.4999 17.2509 17.8326 17.2509 16.6672C17.2509 15.5017 18.0836 14.749 19.7491 14.749C21.2509 14.749 22.0836 15.249 22.5 16.4999C22.5447 16.6204 22.6254 16.7243 22.7311 16.7975C22.8368 16.8706 22.9624 16.9096 23.0909 16.909H24.4236C24.5008 16.911 24.5776 16.8973 24.6493 16.8686C24.7211 16.84 24.7862 16.7971 24.8408 16.7425C24.8954 16.6879 24.9383 16.6228 24.9669 16.5511C24.9956 16.4793 25.0093 16.4026 25.0073 16.3254V16.2435C24.8463 15.3403 24.3914 14.5156 23.7135 13.8975C23.0355 13.2794 22.1724 12.9025 21.2582 12.8254V10.8254C21.2582 10.4926 21.0073 10.2435 20.5909 10.1599H19.34C19.0073 10.1599 18.7582 10.409 18.6746 10.8254V12.749C16.1673 13.0908 14.5836 14.749 14.5836 16.8326C14.5836 19.5835 16.2509 20.6672 19.7509 21.0835C22.0836 21.4999 22.8418 21.9926 22.8418 23.3326C22.8418 24.6726 21.6764 25.5835 20.0927 25.5835C17.9255 25.5835 17.1836 24.6745 16.9255 23.4163C16.9016 23.2757 16.8293 23.148 16.721 23.0553C16.6127 22.9626 16.4753 22.9108 16.3327 22.909H14.9091C14.832 22.9073 14.7553 22.9212 14.6837 22.9499C14.6121 22.9786 14.5471 23.0215 14.4925 23.0761C14.438 23.1306 14.3951 23.1957 14.3663 23.2673C14.3376 23.3388 14.3237 23.4155 14.3255 23.4926V23.5763C14.66 25.6599 15.9927 27.1599 18.7436 27.5763V29.5763C18.7436 29.909 18.9927 30.1599 19.4091 30.2435H20.66C20.9927 30.2435 21.2436 29.9926 21.3255 29.5763V27.5763C23.8255 27.1599 25.4927 25.409 25.4927 23.1599L25.5 23.1672Z" fill="white"/>
<path d="M15.7491 31.9164C13.3513 31.0369 11.2814 29.4425 9.81908 27.3486C8.35678 25.2546 7.57263 22.7622 7.57263 20.2082C7.57263 17.6542 8.35678 15.1618 9.81908 13.0679C11.2814 10.974 13.3513 9.37953 15.7491 8.50005C15.9091 8.43085 16.0435 8.31339 16.1335 8.16409C16.2234 8.01479 16.2645 7.84111 16.2509 7.66732V6.50005C16.2622 6.34694 16.2175 6.19495 16.1252 6.07226C16.033 5.94956 15.8993 5.86448 15.7491 5.83278C15.6318 5.82054 15.514 5.85017 15.4164 5.91641C12.3826 6.88069 9.73434 8.78535 7.85497 11.3547C5.97559 13.9241 4.96259 17.0249 4.96259 20.2082C4.96259 23.3916 5.97559 26.4924 7.85497 29.0617C9.73434 31.6311 12.3826 33.5358 15.4164 34.5001C15.4857 34.5403 15.5635 34.5636 15.6435 34.5679C15.7235 34.5723 15.8034 34.5577 15.8767 34.5252C15.95 34.4927 16.0145 34.4434 16.065 34.3812C16.1155 34.319 16.1506 34.2457 16.1673 34.1673C16.2509 34.0837 16.2509 34.0001 16.2509 33.8328V32.6673C16.2509 32.4164 16 32.0837 15.7491 31.9164ZM24.5837 5.91641C24.5143 5.87616 24.4363 5.85295 24.3562 5.84869C24.276 5.84442 24.196 5.85922 24.1228 5.89187C24.0495 5.92453 23.985 5.9741 23.9345 6.03652C23.8841 6.09894 23.8492 6.17244 23.8328 6.25096C23.7509 6.33278 23.7509 6.41641 23.7509 6.58369V7.74914C23.765 7.9172 23.8173 8.07981 23.904 8.22448C23.9907 8.36915 24.1094 8.49203 24.2509 8.58369C26.6487 9.46316 28.7187 11.0576 30.181 13.1516C31.6433 15.2455 32.4274 17.7379 32.4274 20.2919C32.4274 22.8459 31.6433 25.3383 30.181 27.4322C28.7187 29.5261 26.6487 31.1206 24.2509 32.0001C24.0911 32.0693 23.957 32.1868 23.8673 32.3362C23.7776 32.4855 23.737 32.6592 23.7509 32.8328V34.0001C23.7396 34.1529 23.784 34.3047 23.876 34.4273C23.9679 34.55 24.1011 34.6352 24.2509 34.6673C24.3682 34.6796 24.4861 34.6499 24.5837 34.5837C27.6163 33.6061 30.2607 31.6918 32.1366 29.1162C34.0124 26.5406 35.023 23.4364 35.023 20.2501C35.023 17.0637 34.0124 13.9595 32.1366 11.3839C30.2607 8.80831 27.6163 6.89403 24.5837 5.91641Z" fill="white"/>
</g>
<defs>
<clipPath id="clip0_445_5016">
<rect width="40" height="40" fill="white"/>
</clipPath>
</defs>
</svg>
