<svg width="40" height="40" viewBox="0 0 40 40" fill="none" xmlns="http://www.w3.org/2000/svg">
<circle cx="20" cy="20" r="20" fill="#DEF6F7"/>
<g clip-path="url(#clip0_445_5023)">
<path d="M10 25.7988V14.0313L15.5121 11.0232L21.1981 14.2498V18.6415H19.0623V15.4149L15.5986 13.3526L11.8126 15.4149V26.8658L10 25.7988Z" fill="#01A8AB"/>
<path d="M14.3206 16.7004V28.2734L19.7331 31.5L21.8934 30.3843L16.3062 27.1817V17.9381L14.3206 16.7004Z" fill="#01A8AB"/>
<path d="M30 14.2011V25.9686L24.4878 28.9767L18.8019 25.7501V21.3584H20.9369V24.5858L24.4005 26.6481L28.1873 24.5858V13.134L30 14.2011Z" fill="#01A8AB"/>
<path d="M25.6794 23.2996V11.7266L20.2669 8.5L18.1066 9.61567L23.693 12.8183V22.0627L25.6794 23.2996Z" fill="#01A8AB"/>
</g>
<defs>
<clipPath id="clip0_445_5023">
<rect width="20" height="23" fill="white" transform="translate(10 8.5)"/>
</clipPath>
</defs>
</svg>
