<svg width="339" height="289" viewBox="0 0 339 289" fill="none" xmlns="http://www.w3.org/2000/svg">
<g opacity="0.03" clip-path="url(#clip0_249_2538)">
<path d="M0.886902 182.661V-36.8293L101.207 -92.9365L204.692 -32.7537V49.1611H165.82V-11.0218L102.782 -49.4876L33.8765 -11.0218V202.563L0.886902 182.661Z" fill="#05AAAD"/>
<path d="M79.5215 12.9563V228.817L178.03 289L217.347 268.191L115.66 208.454V36.0418L79.5215 12.9563Z" fill="#05AAAD"/>
<path d="M364.887 -33.6609V185.829L264.567 241.937L161.082 181.754V99.8391H199.939V160.037L262.977 198.503L331.898 160.037V-53.5632L364.887 -33.6609Z" fill="#05AAAD"/>
<path d="M286.253 136.044V-79.8171L187.744 -140L148.427 -119.19L250.099 -59.4537V112.973L286.253 136.044Z" fill="#05AAAD"/>
</g>
<defs>
<clipPath id="clip0_249_2538">
<rect width="364" height="429" fill="white" transform="translate(0.886902 -140)"/>
</clipPath>
</defs>
</svg>
